<?xml version="1.0" standalone="no"?>
<!DOCTYPE svg PUBLIC "-//W3C//DTD SVG 20010904//EN"
 "http://www.w3.org/TR/2001/REC-SVG-20010904/DTD/svg10.dtd">
<svg version="1.0" xmlns="http://www.w3.org/2000/svg"
 width="768.000000pt" height="768.000000pt" viewBox="0 0 768.000000 768.000000"
 preserveAspectRatio="xMidYMid meet">
<metadata>
Created by potrace 1.10, written by Peter Selinger 2001-2011
</metadata>
<g transform="translate(0.000000,768.000000) scale(0.100000,-0.100000)"
fill="#7a7a7a" stroke="none">
<path d="M1424 7649 c-741 -6 -696 -3 -839 -56 -145 -54 -321 -194 -408 -326
-85 -128 -115 -202 -134 -337 -14 -91 -16 -460 -20 -2869 l-4 -2764 21 -61
c20 -57 94 -215 123 -261 98 -157 269 -297 442 -362 125 -46 74 -44 1609 -54
890 -5 1455 -5 1466 1 10 5 27 40 39 82 12 40 26 87 32 103 15 43 39 124 49
165 4 19 13 49 18 65 31 90 45 144 39 158 -6 15 -133 17 -1519 19 l-1513 3
-50 31 c-60 36 -142 134 -155 185 -6 23 -9 948 -7 2565 l2 2529 2955 0 2955 0
3 -1237 c2 -1333 -1 -1255 50 -1229 82 41 153 52 357 59 l190 7 -2 1245 c-2
1272 -10 1618 -40 1715 -59 196 -240 418 -419 515 -21 11 -46 25 -54 29 -8 5
-31 16 -50 24 -19 8 -53 23 -75 32 -26 11 -74 19 -135 22 -164 6 -4201 8
-4926 2z"/>
<path d="M1518 5279 l-23 -5 1 -277 c1 -153 4 -281 8 -285 4 -4 138 -8 297
-10 l289 -3 0 285 c0 216 -3 287 -12 292 -14 9 -525 12 -560 3z"/>
<path d="M2689 5268 c-5 -10 -8 -138 -7 -290 l3 -273 1475 0 1475 0 2 275 c2
157 -1 281 -6 290 -8 12 -205 14 -1471 15 -1371 0 -1463 -1 -1471 -17z"/>
<path d="M1545 4103 c-59 -9 -58 -3 -53 -296 3 -147 9 -272 14 -277 5 -5 138
-11 294 -12 l285 -3 0 295 0 295 -255 1 c-140 1 -268 -1 -285 -3z"/>
<path d="M2686 4094 c-3 -9 -6 -138 -6 -288 0 -198 3 -275 12 -284 9 -9 349
-12 1470 -12 1431 0 1457 0 1468 19 11 21 15 537 4 565 -6 15 -145 16 -1474
16 -1329 0 -1468 -1 -1474 -16z"/>
<path d="M6850 3471 c-53 -8 -80 -21 -140 -70 -56 -45 -200 -182 -305 -290
l-79 -82 444 -444 c245 -245 450 -445 455 -445 12 0 268 257 349 350 64 74 78
108 80 210 4 115 -9 158 -69 230 -78 95 -454 461 -515 502 -60 39 -131 52
-220 39z"/>
<path d="M1562 2923 c-72 -7 -73 -11 -70 -314 l3 -264 295 0 295 0 0 290 0
290 -240 1 c-132 0 -259 -1 -283 -3z"/>
<path d="M2692 2918 c-9 -9 -12 -85 -12 -279 0 -147 3 -274 6 -283 6 -14 108
-16 1057 -16 l1051 0 284 284 c164 163 281 289 278 295 -11 17 -2647 16 -2664
-1z"/>
<path d="M5264 1998 c-739 -742 -740 -743 -758 -803 -10 -33 -24 -78 -31 -100
-6 -22 -19 -66 -28 -98 -10 -31 -24 -83 -34 -115 -9 -31 -22 -75 -28 -97 -13
-40 -37 -121 -61 -207 -8 -27 -20 -69 -28 -95 -7 -27 -21 -77 -31 -113 -10
-36 -23 -85 -30 -110 -42 -143 -43 -153 -9 -197 30 -40 71 -63 105 -59 50 7
105 18 149 31 25 7 72 21 105 30 33 9 74 21 90 27 17 5 46 14 65 18 19 5 67
18 105 30 39 12 85 25 103 30 19 4 46 13 60 18 15 5 53 17 85 26 122 35 173
50 212 61 22 7 67 21 100 31 60 19 64 23 798 756 405 405 737 742 737 750 0
15 -910 928 -925 928 -6 0 -343 -334 -751 -742z m-406 -912 c31 -8 93 -22 137
-31 117 -25 194 -47 204 -59 16 -19 71 -271 71 -321 0 -17 5 -46 10 -65 9 -32
8 -37 -15 -57 -15 -13 -35 -23 -45 -23 -11 0 -34 -6 -52 -14 -18 -8 -60 -22
-93 -32 -33 -9 -78 -23 -100 -29 -22 -7 -67 -21 -100 -30 -33 -10 -77 -24 -98
-31 -64 -24 -81 -19 -136 42 -28 30 -51 65 -51 76 0 21 10 63 34 148 7 25 21
72 30 105 10 33 23 80 31 105 7 25 20 72 30 105 39 136 40 136 143 111z"/>
</g>
</svg>
