<?xml version="1.0" standalone="no"?>
<!DOCTYPE svg PUBLIC "-//W3C//DTD SVG 20010904//EN"
 "http://www.w3.org/TR/2001/REC-SVG-20010904/DTD/svg10.dtd">
<svg version="1.0" xmlns="http://www.w3.org/2000/svg"
 width="384.000000pt" height="384.000000pt" viewBox="0 0 384.000000 384.000000"
 preserveAspectRatio="xMidYMid meet">
<metadata>
Created by potrace 1.10, written by Peter Selinger 2001-2011
</metadata>
<g transform="translate(0.000000,384.000000) scale(0.100000,-0.100000)">
<path d="M515 3830 c3 -5 -7 -17 -22 -27 -15 -10 -33 -25 -40 -33 -10 -12 -12
-425 -13 -1862 l0 -1847 37 -30 38 -31 1388 0 c1009 0 1394 3 1410 11 12 6 32
21 45 32 l22 20 0 1394 0 1394 -473 473 c-260 260 -483 476 -495 480 -12 4
-22 14 -22 22 0 12 -131 14 -941 14 -595 0 -938 -4 -934 -10z m1743 -237 c9
-13 12 -115 12 -428 l0 -412 23 -20 c12 -11 29 -24 37 -29 8 -5 202 -11 430
-14 l415 -5 0 -1232 c0 -677 -3 -1234 -6 -1237 -7 -8 -2510 -8 -2518 0 -3 3
-6 766 -6 1695 0 1266 3 1692 12 1697 6 4 366 6 800 4 726 -2 789 -3 801 -19z"/>
<path d="M2482 1616 c-17 -7 -37 -17 -44 -24 -7 -7 -17 -12 -22 -12 -12 0 -56
-44 -56 -56 0 -4 -6 -15 -13 -23 -26 -30 -50 -130 -44 -181 9 -72 35 -143 68
-183 61 -75 212 -117 301 -84 24 8 54 18 68 21 14 3 42 19 63 36 l37 31 0 99
c0 57 -4 102 -10 105 -8 5 -146 8 -220 5 -15 0 -13 -80 3 -81 6 -1 32 -2 57
-3 l45 -1 3 -41 c3 -46 -3 -53 -68 -77 -58 -21 -80 -21 -127 1 -78 36 -103 83
-103 191 0 68 4 87 24 119 30 48 42 57 93 72 57 17 107 6 152 -36 39 -34 88
-45 119 -25 39 24 -37 119 -116 145 -58 18 -161 19 -210 2z"/>
<path d="M987 1605 c-9 -21 -9 -518 -1 -539 5 -13 25 -16 123 -16 220 1 290
37 335 173 32 96 13 241 -42 314 -50 67 -78 76 -252 81 -141 4 -158 3 -163
-13z m320 -120 c33 -38 33 -39 33 -146 0 -135 -16 -171 -85 -188 -69 -17 -143
-14 -153 7 -12 22 -10 342 2 361 7 10 28 12 89 9 79 -5 82 -6 114 -43z"/>
<path d="M1523 1603 c-3 -9 -1 -34 6 -57 7 -23 16 -62 21 -89 5 -26 13 -62 19
-80 11 -36 28 -110 41 -177 4 -25 13 -56 18 -70 6 -14 13 -37 16 -52 6 -26 10
-28 56 -28 54 0 73 16 85 75 6 28 11 50 49 185 9 30 18 66 20 80 12 61 56 78
56 22 0 -15 6 -47 14 -72 24 -76 45 -153 52 -189 3 -19 13 -49 20 -67 14 -32
17 -34 64 -34 56 0 60 5 82 100 5 25 16 68 23 95 21 80 37 147 45 190 4 22 12
52 18 66 13 33 18 91 8 107 -4 6 -23 12 -41 12 -42 0 -59 -28 -74 -119 -5 -34
-12 -65 -15 -69 -3 -5 -10 -37 -15 -71 -12 -72 -38 -122 -52 -100 -5 8 -9 25
-9 39 0 14 -6 45 -14 70 -19 61 -35 125 -46 184 -5 27 -15 53 -22 58 -7 4 -37
8 -66 8 -53 0 -53 0 -72 -42 -11 -24 -20 -51 -20 -62 0 -10 -6 -39 -14 -65
-27 -86 -46 -158 -46 -174 0 -20 -19 -32 -24 -15 -19 58 -50 193 -73 308 -7
39 -22 50 -65 50 -27 0 -41 -5 -45 -17z"/>
</g>
</svg>
