<?xml version="1.0" standalone="no"?>
<!DOCTYPE svg PUBLIC "-//W3C//DTD SVG 20010904//EN"
 "http://www.w3.org/TR/2001/REC-SVG-20010904/DTD/svg10.dtd">
<svg version="1.0" xmlns="http://www.w3.org/2000/svg"
 width="384.000000pt" height="384.000000pt" viewBox="0 0 384.000000 384.000000"
 preserveAspectRatio="xMidYMid meet">
<metadata>
Created by potrace 1.10, written by Peter Selinger 2001-2011
</metadata>
<g transform="translate(0.000000,384.000000) scale(0.100000,-0.100000)">
<path d="M515 3830 c3 -5 -7 -17 -22 -27 -15 -10 -33 -25 -40 -33 -10 -12 -12
-425 -13 -1862 l0 -1847 37 -30 38 -31 1388 0 c1009 0 1394 3 1410 11 12 6 32
21 45 32 l22 20 0 1394 0 1394 -473 473 c-260 260 -483 476 -495 480 -12 4
-22 14 -22 22 0 12 -131 14 -941 14 -595 0 -938 -4 -934 -10z m1743 -237 c9
-13 12 -115 12 -428 l0 -412 23 -20 c12 -11 29 -24 37 -29 8 -5 202 -11 430
-14 l415 -5 0 -1232 c0 -677 -3 -1234 -6 -1237 -7 -8 -2510 -8 -2518 0 -3 3
-6 766 -6 1695 0 1266 3 1692 12 1697 6 4 366 6 800 4 726 -2 789 -3 801 -19z"/>
<path d="M1793 1613 c-50 -17 -105 -69 -135 -126 -19 -36 -22 -58 -22 -152 0
-95 3 -116 23 -152 26 -48 95 -113 120 -113 9 0 22 -5 28 -11 20 -20 118 -23
179 -4 80 25 127 64 160 133 79 167 10 374 -140 425 -59 20 -155 20 -213 0z
m167 -85 c74 -25 100 -74 100 -188 0 -79 -3 -95 -25 -130 -27 -42 -88 -80
-130 -80 -32 0 -93 31 -122 62 -58 63 -55 235 5 301 38 42 110 57 172 35z"/>
<path d="M2425 1614 c-58 -20 -106 -64 -135 -120 -22 -43 -25 -62 -25 -159 0
-95 3 -115 22 -150 34 -62 54 -82 107 -110 128 -68 272 -26 336 97 l20 38 -33
20 c-46 28 -73 26 -86 -7 -5 -16 -16 -35 -23 -44 -17 -21 -72 -49 -97 -49 -30
0 -84 29 -103 55 -24 32 -50 134 -43 170 19 96 31 128 57 150 61 51 155 41
197 -21 22 -32 26 -33 65 -28 54 9 61 17 47 52 -17 41 -74 93 -118 109 -49 16
-137 15 -188 -3z"/>
<path d="M1077 1613 c-9 -8 -9 -526 -1 -547 5 -13 25 -16 117 -16 159 0 220
15 272 65 72 71 98 197 66 327 -20 81 -88 156 -151 169 -53 10 -294 12 -303 2z
m301 -109 c40 -38 52 -79 52 -171 0 -145 -41 -190 -171 -192 -30 -1 -60 4 -67
11 -13 13 -18 359 -4 372 4 5 44 6 89 3 61 -3 86 -9 101 -23z"/>
</g>
</svg>
