<?xml version="1.0" standalone="no"?>
<!DOCTYPE svg PUBLIC "-//W3C//DTD SVG 20010904//EN"
 "http://www.w3.org/TR/2001/REC-SVG-20010904/DTD/svg10.dtd">
<svg version="1.0" xmlns="http://www.w3.org/2000/svg"
 width="384.000000pt" height="384.000000pt" viewBox="0 0 384.000000 384.000000"
 preserveAspectRatio="xMidYMid meet" stroke-width="20">
<metadata>
Created by potrace 1.10, written by Peter Selinger 2001-2011
</metadata>
<g transform="translate(0.000000,384.000000) scale(0.100000,-0.100000)">
<path d="M1795 3353 c-97 -11 -238 -68 -338 -136 -62 -43 -192 -174 -208 -210
-5 -12 -18 -35 -29 -52 -11 -16 -23 -37 -26 -45 -3 -8 -12 -28 -19 -45 -27
-65 -37 -104 -50 -205 -11 -88 -11 -121 0 -205 15 -112 24 -140 73 -240 49
-102 54 -110 107 -170 60 -69 75 -71 75 -7 0 66 20 125 55 164 32 35 93 68
125 68 11 0 37 6 57 14 21 7 62 19 91 26 49 11 54 10 96 -14 37 -21 57 -26
115 -26 59 0 78 4 112 26 38 24 44 25 92 13 29 -6 72 -18 96 -25 25 -8 53 -14
63 -14 24 0 76 -26 106 -54 43 -38 62 -89 62 -166 0 -45 4 -70 11 -70 16 0 73
62 118 129 44 64 111 203 111 229 0 9 7 39 15 66 30 98 12 334 -31 419 -8 16
-14 37 -14 47 0 9 -7 23 -15 30 -8 7 -15 18 -15 26 0 21 -74 125 -131 185
-103 106 -214 174 -365 223 -52 17 -257 29 -339 19z m248 -230 c101 -36 137
-95 137 -231 0 -40 5 -81 12 -91 9 -15 9 -32 -1 -78 -7 -32 -17 -65 -22 -73
-16 -27 -30 -64 -41 -110 -15 -63 -35 -100 -77 -138 -42 -39 -91 -62 -134 -62
-44 0 -113 36 -148 79 -35 41 -69 122 -69 163 0 15 -5 30 -11 34 -21 13 -49
89 -49 135 0 26 7 60 15 75 10 20 15 59 15 120 0 90 0 92 33 124 19 18 56 40
83 50 66 24 190 26 257 3z"/>
<path d="M450 2515 c-50 -11 -71 -19 -120 -47 -8 -4 -26 -13 -39 -18 -13 -6
-56 -43 -96 -83 -193 -193 -212 -486 -46 -709 19 -27 39 -48 43 -48 9 0 10 1
27 75 12 52 58 105 92 105 9 0 36 7 60 16 58 20 112 20 140 0 30 -20 81 -21
121 0 22 12 46 15 82 11 136 -15 203 -59 213 -138 7 -62 10 -69 27 -63 16 6
86 98 86 112 0 4 5 13 11 19 41 41 68 219 51 335 -44 295 -351 499 -652 433z
m190 -143 c86 -27 100 -44 100 -122 1 -36 7 -78 14 -95 11 -25 10 -37 -2 -74
-8 -25 -21 -56 -29 -70 -7 -15 -13 -35 -13 -46 0 -42 -60 -106 -111 -118 -14
-4 -41 -2 -59 3 -37 11 -100 76 -100 103 0 10 -11 43 -26 74 -31 69 -40 109
-27 125 6 7 13 46 15 86 6 88 21 108 100 133 67 22 72 22 138 1z"/>
<path d="M3130 2515 c-101 -22 -189 -71 -265 -149 -64 -65 -82 -93 -128 -198
-34 -77 -31 -275 4 -368 20 -53 97 -168 119 -180 23 -12 26 -8 33 59 9 78 75
121 209 138 33 4 58 1 82 -11 43 -20 95 -21 124 0 26 18 84 16 170 -7 73 -19
109 -52 123 -114 7 -27 13 -56 15 -62 5 -20 26 -5 60 40 84 115 119 257 98
407 -16 123 -58 206 -149 297 -40 40 -83 77 -96 83 -13 5 -31 14 -39 19 -92
55 -237 73 -360 46z m181 -142 c82 -25 98 -44 102 -130 2 -40 10 -79 16 -87
16 -19 8 -60 -25 -130 -13 -28 -24 -60 -24 -71 0 -29 -62 -94 -100 -105 -17
-5 -45 -7 -61 -3 -40 8 -109 78 -109 112 0 14 -7 39 -15 55 -8 15 -22 48 -30
73 -13 39 -13 47 0 73 9 17 15 56 15 93 0 76 13 93 94 119 65 21 73 21 137 1z"/>
<path d="M1876 1938 c-3 -13 -6 -64 -6 -114 0 -74 -3 -93 -16 -98 -9 -3 -105
-6 -215 -6 -109 0 -200 -1 -201 -2 -1 -2 -5 -122 -8 -268 l-5 -265 -90 3
c-108 4 -215 32 -285 73 -8 5 -24 13 -35 18 -30 13 -125 101 -125 116 0 7 -6
18 -14 24 -7 6 -16 25 -20 41 -10 51 -35 80 -65 77 -39 -5 -54 -17 -48 -41 23
-95 95 -204 176 -267 97 -75 210 -115 376 -131 61 -6 116 -15 122 -20 10 -8
13 -87 15 -312 l3 -301 494 -3 c272 -1 498 1 502 5 4 5 10 141 13 303 3 162 5
296 5 298 1 1 26 2 57 2 98 0 245 39 352 93 63 32 176 132 193 171 5 12 13 28
18 36 22 37 42 99 39 121 -2 20 -10 25 -41 27 -36 3 -38 2 -57 -45 -57 -136
-131 -207 -270 -258 -76 -28 -270 -59 -283 -46 -7 7 -14 59 -17 120 l-5 108
-55 65 c-30 36 -73 86 -94 112 -22 26 -59 68 -82 94 l-43 47 -93 5 -93 5 -2
95 c-4 136 -6 140 -52 140 -32 0 -40 -4 -45 -22z m258 -264 c13 -13 16 -42 16
-160 l0 -144 124 0 c89 0 127 -4 133 -12 4 -7 9 -201 10 -431 1 -396 0 -418
-17 -427 -12 -6 -194 -10 -473 -10 -406 0 -456 2 -461 16 -3 9 -6 273 -6 588
0 432 3 575 12 584 9 9 96 12 329 12 275 0 320 -2 333 -16z m98 -83 c25 -35
42 -56 120 -143 15 -17 25 -35 22 -39 -3 -5 -48 -9 -100 -9 l-94 0 0 115 c0
129 7 140 52 76z"/>
<path d="M1663 1264 c-3 -8 -2 -19 3 -24 7 -7 384 -14 532 -10 6 0 12 11 12
25 l0 25 -270 0 c-237 0 -271 -2 -277 -16z"/>
<path d="M1667 1123 c-15 -15 -6 -43 16 -48 12 -3 135 -4 272 -3 l250 3 3 28
3 27 -269 0 c-148 0 -272 -3 -275 -7z"/>
<path d="M1670 945 l0 -25 269 0 c151 0 272 4 275 9 4 5 3 16 0 25 -5 14 -38
16 -275 16 l-269 0 0 -25z"/>
<path d="M1670 806 c-26 -33 -1 -36 271 -36 l270 0 -3 23 -3 22 -261 3 c-220
2 -263 0 -274 -12z"/>
</g>
</svg>
